# xmcd CD database file
#
# Track frame offsets:
#	150
#	13097
#	26882
#	38740
#	51702
#	65012
#	75907
#	88862
#	100902
#	115610
#	129495
#
# Disc length: 1876 seconds
#
# Revision: 0
# Processed by: cddbd v1.5.1PL2 Copyright (c) Steve Scherf et al.
# Submitted via: CDex 1.51
#
DISCID=8f07520b
DTITLE=Bob Lucier - Eleven Favorites
DYEAR=2002
DGENRE=Country
TTITLE0=Pick Me Up (on the way down)
TTITLE1=Fraulein
TTITLE2=Workin Man Blues
TTITLE3=I Fall To Pieces
TTITLE4=Fool Such As I
TTITLE5=Magnum
TTITLE6=Pass Me By
TTITLE7=Blues For Felix
TTITLE8=Alright I'll Sign The Papers
TTITLE9=My Special Angel
TTITLE10=Lonesome 77203
EXTD=YEAR: 2002
EXTT0=
EXTT1=
EXTT2=
EXTT3=
EXTT4=
EXTT5=
EXTT6=
EXTT7=
EXTT8=
EXTT9=
EXTT10=
PLAYORDER=
